PathFileType	4	(X/Y/Z)	Walk6.trc
DataRate	CameraRate	NumFrames	NumMarkers	Units	OrigDataRate	OrigDataStartFrame	OrigNumFrames
200.000000	200.000000	5	60	mm	200.000000	421	752
Frame#	Times		RCAR		LTH3		RTH2		LBHD		LWRU		LCAR		LUA1		LFA1		LElbow		RTB3		RFA1		RToe		RASI		LElbowM		RMT5		RTB2		C7		RLFC		LTH2		RBHD		RPSI		LWRR		RMT1		RWRU		RTB1		LASI		RTB4		STRN		T10		CLAV		RBack		LPSI		RLMAL		RElbow		LTH4		LLFC		RUA1		LTB4		LACR1		LTB3		RCAL		LFHD		RTH3		LCAL		LTB1		LMMAL		RElbowM		RTH1		LTB2		RFHD		RACR1		LMFC		RTH4		RMFC		LLMAL		LMT5		RWRR		LTH1		LToe		LMT1
			X1	Y1	Z1	X2	Y2	Z2	X3	Y3	Z3	X4	Y4	Z4	X5	Y5	Z5	X6	Y6	Z6	X7	Y7	Z7	X8	Y8	Z8	X9	Y9	Z9	X10	Y10	Z10	X11	Y11	Z11	X12	Y12	Z12	X13	Y13	Z13	X14	Y14	Z14	X15	Y15	Z15	X16	Y16	Z16	X17	Y17	Z17	X18	Y18	Z18	X19	Y19	Z19	X20	Y20	Z20	X21	Y21	Z21	X22	Y22	Z22	X23	Y23	Z23	X24	Y24	Z24	X25	Y25	Z25	X26	Y26	Z26	X27	Y27	Z27	X28	Y28	Z28	X29	Y29	Z29	X30	Y30	Z30	X31	Y31	Z31	X32	Y32	Z32	X33	Y33	Z33	X34	Y34	Z34	X35	Y35	Z35	X36	Y36	Z36	X37	Y37	Z37	X38	Y38	Z38	X39	Y39	Z39	X40	Y40	Z40	X41	Y41	Z41	X42	Y42	Z42	X43	Y43	Z43	X44	Y44	Z44	X45	Y45	Z45	X46	Y46	Z46	X47	Y47	Z47	X48	Y48	Z48	X49	Y49	Z49	X50	Y50	Z50	X51	Y51	Z51	X52	Y52	Z52	X53	Y53	Z53	X54	Y54	Z54	X55	Y55	Z55	X56	Y56	Z56	X57	Y57	Z57	X58	Y58	Z58	X59	Y59	Z59	X60	Y60	Z60

421	2.105	-461.87	911.21	322.38	-645.75	605.41	-164.76	-721.61	681.77	165.8	-745.34	1628.8	-66.628	-845.89	853.08	-250.26	-786.83	797.26	-257.67	-786.78	1286.5	-252.65	-852.94	986.96	-265.28	-843.82	1138.4	-263.14	-920.63	185.99	84.467	-618.94	1007.8	337.62	-814	24.524	113.73	-679.31	1026.1	160.37	-871.04	1139.4	-190.12	-923.39	20.846	161.88	-912.74	272.56	155.12	-771.95	1501.9	6.4173	-861.37	494.82	170.94	-608.17	715.19	-148.1	-737.42	1634.5	74.919	-887.54	1018.5	52.474	-774.63	852.8	-208.58	-866.47	33.771	87.654	-530.25	903.92	322.81	-846.33	356.01	102.58	-675.4	1019.4	-125.7	-882.52	270.25	91.88	-601.82	1236.6	-1.8552	-882.55	1281.6	7.2348	-642.4	1411	1.8454	-844.22	1413.9	143.53	-888.98	1010.6	-24.88	-1005.8	80.816	119.64	-706.59	1137.2	325.61	-670.23	693.87	-179.27	-621.64	511.54	-150.05	-697.26	1289.6	269.99	-511.71	309.16	-83.79	-707.09	1454.3	-165.5	-491.26	215.08	-88.017	-1063.1	52.758	67.172	-565.84	1670.3	-34.374	-817.46	609.06	179.93	-537.95	19.152	-84.914	-531.01	397	-82.307	-474.26	105.45	-51.731	-738.03	1108.5	254.72	-763.92	790.9	199.22	-540.66	305.68	-153.58	-562.71	1672	41.773	-691.32	1452.3	160.49	-612.84	515.23	-16.37	-788.08	698.3	192.63	-843.08	506.72	39.681	-497.69	76.586	-131.06	-384.47	53.302	-158.19	-488.43	941.57	267.98	-692.69	784.51	-185.92	-305.98	98.716	-98.237	-348.14	79.989	-80.244
422	2.11	-456.04	911.73	321.58	-639.56	605.21	-164.41	-716.84	681.18	165.9	-740.12	1628.1	-67.692	-841.44	852.21	-250.99	-782.55	796.16	-258.04	-781.49	1285.5	-253.52	-848.02	986.1	-266.05	-838.5	1137.5	-263.97	-919.21	186.2	84.43	-613.52	1007.5	336.85	-813.98	24.496	113.77	-674.11	1025.6	160.08	-865.94	1138.6	-191.04	-923.34	20.898	161.78	-910.48	272.72	155.01	-766.86	1501.2	5.3739	-857.31	494.58	170.76	-602.24	715.17	-148.34	-732.3	1633.9	73.852	-882.08	1017.7	51.625	-770.37	851.71	-208.95	-866.37	33.773	87.672	-524.37	904.05	321.94	-843.28	355.52	102.45	-669.76	1018.6	-126.15	-880.31	270.12	91.789	-596.56	1236	-2.5011	-877.33	1280.8	6.32	-637.25	1410.4	0.96971	-839.3	1413.3	142.44	-883.51	1009.8	-25.695	-1005.3	81.821	119.72	-701.68	1136.7	324.93	-664.26	693.55	-179.35	-615.75	510.92	-149.86	-692.38	1289	269.17	-506.94	308.07	-83.128	-701.89	1453.5	-166.47	-487.01	213.91	-87.205	-1062.9	54.254	67.252	-560.63	1669.6	-35.298	-812.92	608.67	179.66	-535.51	19.114	-84.145	-525.75	395.99	-81.783	-470.77	104.2	-50.79	-733	1107.9	254	-759.04	790.4	198.81	-535.9	304.66	-152.84	-557.57	1671.3	40.853	-686.33	1451.7	159.6	-606.89	514.82	-16.257	-783.35	697.86	192.26	-838.49	506.24	39.556	-494.38	75.612	-130.15	-381.71	51.199	-157.24	-482.7	941.98	267.19	-686.96	784.09	-186.38	-302.34	95.501	-97.234	-344.93	77.451	-79.369
423	2.115	-450.36	912.18	320.78	-633.2	605.12	-164.08	-711.96	680.61	166.01	-734.9	1627.5	-68.799	-836.85	851.34	-251.78	-778.12	795.07	-258.45	-776.15	1284.6	-254.42	-842.98	985.23	-266.86	-833.09	1136.6	-264.83	-917.72	186.44	84.415	-608.22	1007.3	336.04	-813.97	24.47	113.79	-668.87	1025	159.76	-860.76	1137.7	-191.99	-923.28	20.966	161.69	-908.1	272.9	154.93	-761.76	1500.6	4.2931	-853.06	494.32	170.59	-596.16	715.27	-148.59	-727.18	1633.3	72.742	-876.59	1016.9	50.784	-765.98	850.63	-209.36	-866.27	33.775	87.694	-518.64	904.14	321.05	-840.1	355.04	102.33	-664.1	1017.9	-126.62	-878.01	270	91.715	-591.29	1235.4	-3.1662	-872.1	1280.1	5.3879	-632.09	1409.8	0.064083	-834.39	1412.7	141.32	-878.02	1009.1	-26.501	-1004.8	82.912	119.83	-696.84	1136.2	324.19	-658.16	693.32	-179.41	-609.75	510.38	-149.73	-687.54	1288.5	268.33	-502.27	306.96	-82.501	-696.69	1452.7	-167.47	-482.97	212.7	-86.44	-1062.6	55.883	67.37	-555.43	1669	-36.255	-808.23	608.27	179.41	-533.56	19.181	-83.458	-520.5	394.98	-81.284	-467.6	102.89	-49.911	-728.03	1107.3	253.23	-754.06	789.91	198.39	-531.21	303.66	-152.14	-552.43	1670.7	39.899	-681.34	1451.1	158.69	-600.79	514.44	-16.225	-778.49	697.43	191.88	-833.72	505.75	39.456	-491.44	74.628	-129.3	-379.4	48.885	-156.38	-477.1	942.35	266.39	-681.14	783.76	-186.8	-299.02	91.867	-96.275	-342.1	74.606	-78.552
424	2.12	-444.83	912.56	319.99	-626.71	605.11	-163.77	-706.94	680.08	166.12	-729.67	1626.9	-69.948	-832.11	850.46	-252.62	-773.53	793.98	-258.91	-770.75	1283.6	-255.35	-837.83	984.35	-267.71	-827.6	1135.6	-265.72	-916.15	186.73	84.423	-603.04	1007	335.19	-813.96	24.446	113.8	-663.59	1024.5	159.39	-855.51	1136.9	-192.99	-923.2	21.051	161.59	-905.59	273.11	154.87	-756.65	1499.9	3.1766	-848.63	494.05	170.46	-589.95	715.46	-148.86	-722.07	1632.7	71.59	-871.09	1016.2	49.959	-761.45	849.56	-209.8	-866.16	33.774	87.719	-513.07	904.19	320.16	-836.78	354.56	102.21	-658.44	1017.3	-127.11	-875.59	269.91	91.66	-585.99	1234.9	-3.8514	-866.85	1279.5	4.4405	-626.92	1409.2	-0.86981	-829.49	1412.2	140.14	-872.51	1008.3	-27.293	-1004.1	84.097	119.97	-692.07	1135.7	323.4	-651.95	693.18	-179.43	-603.63	509.92	-149.65	-682.75	1288	267.45	-497.69	305.83	-81.918	-691.48	1451.9	-168.51	-479.1	211.46	-85.735	-1062.3	57.657	67.524	-550.22	1668.4	-37.244	-803.38	607.86	179.16	-532	19.359	-82.864	-515.28	393.97	-80.816	-464.71	101.55	-49.112	-723.12	1106.7	252.38	-749	789.44	197.95	-526.57	302.68	-151.51	-547.3	1670.1	38.911	-676.36	1450.6	157.76	-594.56	514.09	-16.279	-773.5	697	191.5	-828.78	505.23	39.383	-488.8	73.661	-128.54	-377.48	46.413	-155.64	-471.63	942.66	265.59	-675.23	783.51	-187.19	-295.99	87.887	-95.372	-339.59	71.521	-77.803
425	2.125	-439.45	912.87	319.2	-620.12	605.18	-163.49	-701.79	679.59	166.22	-724.44	1626.4	-71.138	-827.21	849.58	-253.51	-768.78	792.91	-259.4	-765.31	1282.7	-256.3	-832.55	983.47	-268.6	-822.04	1134.7	-266.63	-914.49	187.08	84.454	-597.98	1006.7	334.32	-813.97	24.424	113.79	-658.27	1024	158.98	-850.18	1136	-194.02	-923.1	21.158	161.49	-902.95	273.35	154.83	-751.54	1499.4	2.0269	-843.99	493.77	170.35	-583.64	715.72	-149.14	-716.97	1632.3	70.399	-865.56	1015.5	49.154	-756.79	848.51	-210.29	-866.04	33.771	87.747	-507.65	904.2	319.25	-833.31	354.09	102.12	-652.76	1016.7	-127.63	-873.05	269.84	91.628	-580.68	1234.4	-4.5579	-861.6	1278.9	3.4801	-621.74	1408.7	-1.8303	-824.6	1411.7	138.93	-866.98	1007.7	-28.066	-1003.5	85.387	120.14	-687.38	1135.2	322.55	-645.66	693.12	-179.43	-597.41	509.56	-149.64	-678	1287.5	266.54	-493.19	304.73	-81.388	-686.27	1451.1	-169.57	-475.37	210.24	-85.099	-1061.9	59.587	67.711	-545.02	1667.9	-38.267	-798.36	607.44	178.92	-530.76	19.643	-82.369	-510.05	392.99	-80.387	-462.05	100.22	-48.406	-718.26	1106.2	251.48	-743.84	788.99	197.5	-521.94	301.77	-150.95	-542.18	1669.6	37.89	-671.37	1450.1	156.81	-588.23	513.78	-16.426	-768.38	696.58	191.12	-823.64	504.71	39.338	-486.4	72.732	-127.88	-375.87	43.846	-155.03	-466.3	942.91	264.8	-669.23	783.33	-187.54	-293.19	83.649	-94.542	-337.34	68.272	-77.134
